<svg aria-hidden="true" style="position:absolute;width:0;height:0;overflow:hidden" xmlns="http://www.w3.org/2000/svg">
  <defs>    
    <symbol id="closed-eye" viewBox="0 0 59 64">
      <path  d="M47.23,18.54l11.05-11A2.46,2.46,0,0,0,54.8,4h0L.72,58.1A2.46,2.46,0,0,0,4.2,61.57h0l12-12A31.9,31.9,0,0,0,29.5,52.46,32.59,32.59,0,0,0,58.75,33.88a2.5,2.5,0,0,0,0-2.17A33.53,33.53,0,0,0,47.23,18.54ZM29.5,45.08a12.13,12.13,0,0,1-6.76-2l3.59-3.59a7.35,7.35,0,0,0,10.54-6.65,7.26,7.26,0,0,0-.73-3.17L39.74,26a12.27,12.27,0,0,1-10.24,19ZM.25,33.88a2.5,2.5,0,0,1,0-2.17A32.58,32.58,0,0,1,29.5,13.12a32.13,32.13,0,0,1,8.11,1.07l-6.44,6.44A12.2,12.2,0,0,0,17.34,34.47L7.82,44A34.08,34.08,0,0,1,.25,33.88Z"></path>
    </symbol>
    <symbol id="opened-eye" viewBox="0 0 59 64">
      <path  d="M36.87,32.79a7.38,7.38,0,1,1-7.37-7.37A7.38,7.38,0,0,1,36.87,32.79Zm21.88,1.09A32.59,32.59,0,0,1,29.5,52.46,32.59,32.59,0,0,1,.25,33.88a2.5,2.5,0,0,1,0-2.17A32.58,32.58,0,0,1,29.5,13.12,32.58,32.58,0,0,1,58.75,31.71,2.5,2.5,0,0,1,58.75,33.88Zm-17-1.09A12.29,12.29,0,1,0,29.5,45.08,12.29,12.29,0,0,0,41.79,32.79Z"></path>
    </symbol>
    <symbol id="close" viewBox="0 0 20 20">
      <path stroke-linecap="round" stroke-linejoin="round" stroke-width="2" d="M15 5 5 15M5 5l10 10" />
    </symbol>
  </defs>
</svg>